<svg width="25" height="24" viewBox="0 0 25 24" fill="none" xmlns="http://www.w3.org/2000/svg">
<path d="M22.4329 18.33C22.4329 18.69 22.3529 19.06 22.1829 19.42C22.0129 19.78 21.7929 20.12 21.5029 20.44C21.0129 20.98 20.4729 21.37 19.8629 21.62C19.2629 21.87 18.6129 22 17.9129 22C16.8929 22 15.8029 21.76 14.6529 21.27C13.5029 20.78 12.3529 20.12 11.2129 19.29C10.0629 18.45 8.97289 17.52 7.93289 16.49C6.90289 15.45 5.97289 14.36 5.14289 13.22C4.32289 12.08 3.66289 10.94 3.18289 9.81C2.70289 8.67 2.46289 7.58 2.46289 6.54C2.46289 5.86 2.58289 5.21 2.82289 4.61C3.06289 4 3.44289 3.44 3.97289 2.94C4.61289 2.31 5.31289 2 6.05289 2C6.33289 2 6.61289 2.06 6.86289 2.18C7.12289 2.3 7.35289 2.48 7.53289 2.74L9.85289 6.01C10.0329 6.26 10.1629 6.49 10.2529 6.71C10.3429 6.92 10.3929 7.13 10.3929 7.32C10.3929 7.56 10.3229 7.8 10.1829 8.03C10.0529 8.26 9.86289 8.5 9.62289 8.74L8.86289 9.53C8.75289 9.64 8.70289 9.77 8.70289 9.93C8.70289 10.01 8.71289 10.08 8.73289 10.16C8.76289 10.24 8.79289 10.3 8.81289 10.36C8.99289 10.69 9.30289 11.12 9.74289 11.64C10.1929 12.16 10.6729 12.69 11.1929 13.22C11.7329 13.75 12.2529 14.24 12.7829 14.69C13.3029 15.13 13.7329 15.43 14.0729 15.61C14.1229 15.63 14.1829 15.66 14.2529 15.69C14.3329 15.72 14.4129 15.73 14.5029 15.73C14.6729 15.73 14.8029 15.67 14.9129 15.56L15.6729 14.81C15.9229 14.56 16.1629 14.37 16.3929 14.25C16.6229 14.11 16.8529 14.04 17.1029 14.04C17.2929 14.04 17.4929 14.08 17.7129 14.17C17.9329 14.26 18.1629 14.39 18.4129 14.56L21.7229 16.91C21.9829 17.09 22.1629 17.3 22.2729 17.55C22.3729 17.8 22.4329 18.05 22.4329 18.33Z" stroke="#F8F8F8" stroke-width="1.5" stroke-miterlimit="10"/>
</svg>
