<svg width="25" height="24" viewBox="0 0 25 24" fill="none" xmlns="http://www.w3.org/2000/svg">
<path d="M9.72217 22H15.7222C20.7222 22 22.7222 20 22.7222 15V9C22.7222 4 20.7222 2 15.7222 2H9.72217C4.72217 2 2.72217 4 2.72217 9V15C2.72217 20 4.72217 22 9.72217 22Z" stroke="#B0B3B9" stroke-width="1.5" stroke-linecap="round" stroke-linejoin="round"/>
<path d="M12.7222 15.5C14.6552 15.5 16.2222 13.933 16.2222 12C16.2222 10.067 14.6552 8.5 12.7222 8.5C10.7892 8.5 9.22217 10.067 9.22217 12C9.22217 13.933 10.7892 15.5 12.7222 15.5Z" stroke="#B0B3B9" stroke-width="1.5" stroke-linecap="round" stroke-linejoin="round"/>
<path d="M18.3583 7H18.3698" stroke="#B0B3B9" stroke-width="2" stroke-linecap="round" stroke-linejoin="round"/>
</svg>
