<svg width="25" height="25" viewBox="0 0 25 25" fill="none" xmlns="http://www.w3.org/2000/svg">
<g clip-path="url(#clip0_187_723)">
<path d="M21.6832 3.27326C21.567 3.17291 21.4256 3.10618 21.2743 3.08024C21.123 3.05431 20.9674 3.07015 20.8245 3.12607L1.82508 10.5614C1.55581 10.6661 1.32785 10.8554 1.1755 11.1009C1.02316 11.3464 0.954685 11.6347 0.980384 11.9225C1.00608 12.2102 1.12457 12.4818 1.31799 12.6964C1.51142 12.911 1.76933 13.057 2.05289 13.1123L6.9757 14.0789V19.5679C6.97473 19.8669 7.06358 20.1593 7.23074 20.4072C7.3979 20.6551 7.63565 20.8471 7.9132 20.9583C8.19032 21.0714 8.49507 21.0986 8.78783 21.0362C9.0806 20.9739 9.34782 20.8248 9.55476 20.6086L11.9285 18.1467L15.6945 21.4429C15.9662 21.6839 16.3166 21.8173 16.6798 21.8179C16.8389 21.8178 16.9971 21.7928 17.1485 21.7439C17.396 21.6654 17.6185 21.5234 17.794 21.3321C17.9695 21.1408 18.0919 20.9069 18.1488 20.6536L21.9541 4.09919C21.9882 3.9499 21.9809 3.79415 21.9332 3.64865C21.8855 3.50315 21.7991 3.37338 21.6832 3.27326ZM15.9513 6.64826L7.55226 12.6633L2.90226 11.7511L15.9513 6.64826ZM8.4757 19.5679V15.1167L10.7998 17.1548L8.4757 19.5679ZM16.6816 20.3179L8.93039 13.5211L20.0866 5.52513L16.6816 20.3179Z" fill="#B0B3B9"/>
</g>
<defs>
<clipPath id="clip0_187_723">
<rect width="24" height="24" fill="white" transform="translate(0.225586 0.817932)"/>
</clipPath>
</defs>
</svg>
